<?xml version="1.0" encoding="UTF-8" standalone="no"?>
<!-- Generator: Adobe Illustrator 27.5.0, SVG Export Plug-In . SVG Version: 6.00 Build 0)  -->

<svg
   version="1.1"
   x="0px"
   y="0px"
   viewBox="0 0 500 500"
   style="enable-background:new 0 0 500 500;"
   xml:space="preserve"
   id="svg5"
   sodipodi:docname="12242167_4914012.svg"
   inkscape:version="1.4 (e7c3feb1, 2024-10-09)"
   xmlns:inkscape="http://www.inkscape.org/namespaces/inkscape"
   xmlns:sodipodi="http://sodipodi.sourceforge.net/DTD/sodipodi-0.dtd"
   xmlns:xlink="http://www.w3.org/1999/xlink"
   xmlns="http://www.w3.org/2000/svg"
   xmlns:svg="http://www.w3.org/2000/svg"><defs
   id="defs6">
	

		
		
	</defs><sodipodi:namedview
   id="namedview5"
   pagecolor="#ffffff"
   bordercolor="#000000"
   borderopacity="0.25"
   inkscape:showpageshadow="2"
   inkscape:pageopacity="0.0"
   inkscape:pagecheckerboard="0"
   inkscape:deskcolor="#d1d1d1"
   inkscape:zoom="1.3161781"
   inkscape:cx="216.15616"
   inkscape:cy="233.25111"
   inkscape:window-width="1512"
   inkscape:window-height="945"
   inkscape:window-x="0"
   inkscape:window-y="37"
   inkscape:window-maximized="0"
   inkscape:current-layer="XMLID_124_" />
<g
   id="BACKGROUND">
	<rect
   id="XMLID_228_"
   style="fill:#FFFFFF;"
   width="500"
   height="500" />
</g>
<rect
   id="XMLID_129_"
   style="fill:#f4feff"
   width="500"
   height="395.37201"
   x="0"
   y="0" /><g
   id="XMLID_90_">
			<g
   id="XMLID_124_"
   transform="translate(1.5195512,-2.2793268)">
				<g
   id="XMLID_123_">
					<rect
   id="XMLID_128_"
   x="210.72501"
   y="70.480003"
   style="fill:#d1ab68"
   width="254.35899"
   height="325.66101" />
					<g
   id="XMLID_121_">
						<rect
   id="XMLID_200_"
   x="218.896"
   y="79.759003"
   style="fill:#a5e0f2"
   width="236.59"
   height="308.28" />
						<polygon
   id="XMLID_198_"
   style="fill:#bff8fd"
   points="225.186,85.486 455.486,87.219 455.486,388.039 225.186,388.039 " />
						<g
   id="XMLID_126_">
							<polygon
   id="XMLID_195_"
   style="fill:#f0fdfe"
   points="218.896,116.069 218.896,79.759 281.136,79.759 " />
							<polygon
   id="XMLID_194_"
   style="fill:#f0fdfe"
   points="218.896,253.729 455.486,115.689 455.486,143.249 218.896,281.279 " />
							<polygon
   id="XMLID_191_"
   style="fill:#f0fdfe"
   points="325.096,388.039 455.486,311.969 455.486,326.569 350.126,388.039 " />
							<polygon
   id="XMLID_192_"
   style="fill:#f0fdfe"
   points="455.486,388.039 373.716,388.039 455.486,340.329 " />
							<polygon
   id="XMLID_193_"
   style="fill:#f0fdfe"
   points="323.226,79.759 343.706,79.759 218.896,152.569 218.896,140.629 " />
						</g>
					</g>
					<g
   id="XMLID_122_">
						<rect
   id="XMLID_120_"
   x="330.22601"
   y="79.169998"
   style="fill:#d1ab68"
   width="6.9619999"
   height="310.90399" />
						<path
   id="XMLID_119_"
   style="fill:#d1ab68"
   d="m 460.566,119.037 v -6.832 H 213.862 v 6.832 z" />
					</g>
				</g>
				<g
   id="XMLID_190_"
   transform="translate(-9.1173061,5.3184287)">
					<g
   id="XMLID_189_">
						<g
   id="XMLID_188_">
							<path
   id="XMLID_118_"
   style="fill:#779923"
   d="m 384.779,342.022 c -1.935,-0.323 -5.154,-6.769 -6.017,-8.096 -4.913,-7.558 -9.609,-15.663 -12.874,-24.081 -1.063,-2.74 -3.509,-8.233 -1.299,-11.063 1.199,-1.537 3.215,0.071 4.278,0.945 3.226,2.651 5.99,5.972 8.727,9.107 0.873,1 1.703,2.024 2.519,3.071 0.365,0.468 1.367,1.922 1.129,1.378 -1.575,-3.6 -4.198,-6.985 -6.116,-10.42 -4.452,-7.976 -8.412,-16.324 -10.8,-25.17 -0.912,-3.377 -1.774,-7.07 -1.745,-10.591 0.009,-1.156 0.107,-3.161 1.456,-3.661 2.444,-0.904 5.801,3.557 7.034,5.053 3.469,4.206 6.071,9.185 8.872,13.844 0.872,1.451 1.843,4.069 3.189,5.145 0.354,0.284 -0.347,-0.841 -0.552,-1.247 -0.582,-1.156 -1.182,-2.299 -1.745,-3.464 -1.414,-2.925 -2.821,-5.855 -4.121,-8.832 -3.716,-8.515 -6.718,-17.63 -8.333,-26.798 -0.389,-2.21 -1.445,-6.741 1.024,-8.241 2.767,-1.681 5.497,2.643 6.653,4.435 3.097,4.799 5.567,10.165 8.045,15.302 0.568,1.178 2.257,4.857 1.968,4.121 -0.36,-0.917 -3.467,-10.232 -4.435,-13.701 -2.563,-9.183 -5.102,-18.829 -4.489,-28.451 0.142,-2.218 0.416,-7.315 2.625,-8.674 2.095,-1.289 4.474,3.978 5.118,5.157 2.857,5.226 7.725,18.871 7.362,17.716 -0.923,-2.935 -1.743,-5.906 -2.467,-8.897 -2.305,-9.525 -3.585,-19.151 -2.218,-28.91 0.268,-1.912 0.531,-7.208 2.73,-8.15 2.052,-0.88 3.602,3.574 4.081,4.738 2.275,5.525 3.659,11.406 4.987,17.217 0.502,2.195 0.998,4.392 1.496,6.588 0.02,0.089 -2.665,-22.434 -1.588,-34.16 0.199,-2.16 0.238,-2.747 0.604,-4.842 0.241,-1.382 0.532,-2.827 0.945,-4.173 0.951,-3.104 3.178,-5.393 5.367,-1.811 2.403,3.932 3.174,9.018 4.055,13.464 0.832,4.199 1.301,8.474 2.139,12.664 0.109,0.547 -0.105,-1.11 -0.144,-1.667 -0.027,-0.373 -0.143,-2.39 -0.158,-2.716 -0.126,-2.78 -0.201,-5.564 -0.131,-8.347 0.195,-7.736 1.389,-15.659 3.885,-23.004 0.777,-2.29 1.679,-5.542 3.726,-7.087 2.39,-1.803 4.255,2.301 4.725,3.937 1.413,4.919 1.492,10.251 1.811,15.328 0.061,0.98 -0.297,4.212 0.42,5.013 0.534,0.597 0.625,-1.476 0.892,-2.231 0.503,-1.418 1.012,-2.847 1.614,-4.226 1.574,-3.603 3.573,-6.978 6.063,-10.026 6.302,-7.713 14.162,-13.915 23.491,-17.506 2.973,-1.145 6.959,-2.657 10.223,-2.388 4.566,0.376 -1.822,8.462 -2.664,9.514 -0.453,0.565 -0.923,1.115 -1.391,1.666 -5.676,6.677 -12.225,12.533 -18.53,18.596 -1.619,1.556 -3.223,3.13 -4.803,4.724 -0.029,0.029 -1.391,1.228 -1.26,1.457 0.05,0.088 2.508,-1.471 2.572,-1.509 1.854,-1.098 3.758,-2.115 5.722,-3.005 5.368,-2.434 11.345,-4.406 17.217,-5.079 2.31,-0.265 6.17,-0.545 8.084,1.207 2.154,1.973 -2.067,4.925 -3.294,5.788 -6.912,4.859 -14.951,8.439 -22.637,11.863 -1.827,0.814 -3.656,1.625 -5.499,2.401 -0.71,0.3 -1.427,0.584 -2.139,0.88 -0.432,0.179 -1.754,0.564 -1.286,0.564 4.3,0 9.155,-2.249 13.556,-2.625 2.056,-0.175 4.119,-0.228 6.181,-0.131 2.885,0.137 13.65,1.232 8.596,6.286 -0.568,0.568 -1.569,1.354 -2.231,1.798 -0.499,0.334 -2.306,1.391 -2.822,1.667 -6.632,3.539 -13.883,5.979 -20.879,8.687 -2.449,0.948 -5.869,1.692 -8.018,3.255 -0.645,0.469 1.543,-0.408 2.31,-0.63 1.925,-0.558 3.875,-1.052 5.827,-1.509 5.95,-1.396 12.334,-2.631 18.477,-2.258 1.601,0.098 5.207,0.543 4.108,3.032 -1.496,3.383 -5.871,5.565 -8.872,7.27 -6.782,3.855 -13.839,7.196 -20.813,10.682 -2.247,1.124 -4.494,2.247 -6.719,3.412 -0.249,0.131 -2.134,0.865 -2.244,1.234 -0.282,0.94 1.888,-0.537 2.821,-0.84 1.671,-0.541 3.344,-1.071 5.026,-1.575 5.922,-1.772 12.186,-3.48 18.425,-3.162 1.722,0.087 5.146,0.373 5.84,2.401 1.081,3.159 -4.98,6.595 -6.889,7.861 -7.699,5.106 -16.103,9.098 -24.226,13.464 -2.436,1.31 -4.857,2.648 -7.296,3.95 -0.04,0.022 -2.714,1.246 -2.677,1.431 0.078,0.391 0.762,-0.231 1.141,-0.354 0.67,-0.218 1.339,-0.438 2.008,-0.657 1.599,-0.522 3.204,-1.012 4.829,-1.443 5.497,-1.458 11.951,-3.236 17.664,-2.205 2.056,0.371 5.404,1.644 5.84,4.042 0.673,3.703 -6.145,6.142 -8.53,7.323 -6.716,3.324 -13.657,6.146 -20.485,9.225 -1.986,0.896 -5.771,1.847 -7.349,3.425 -0.272,0.272 0.738,-0.218 1.102,-0.341 1.003,-0.337 2.015,-0.639 3.032,-0.931 2.415,-0.695 4.853,-1.313 7.296,-1.903 1.959,-0.474 3.926,-0.909 5.905,-1.286 1.459,-0.279 2.054,-0.376 3.504,-0.604 3.487,-0.548 14.218,-2.794 17.074,1.089 2.432,3.308 -3.682,5.86 -5.735,6.811 -7.667,3.551 -15.783,6.074 -23.688,9.029 -2.5,0.934 -4.975,1.926 -7.427,2.979 -0.832,0.357 -1.663,0.714 -2.481,1.102 -0.321,0.153 -1.263,0.658 -0.944,0.499 8.347,-4.174 18.482,-4.974 27.624,-5.158 2.381,-0.047 9.801,-0.596 10.564,2.966 0.885,4.129 -6.973,7.108 -9.567,8.268 -1.213,0.543 -2.442,1.05 -3.674,1.548 -1.167,0.472 -2.335,0.939 -3.504,1.405 -2.151,0.855 -4.31,1.687 -6.47,2.519 -2.172,0.837 -4.349,1.659 -6.522,2.494 -2.45,0.94 -4.898,1.888 -7.336,2.86 -1.055,0.422 -1.406,0.56 -2.402,0.985 -0.401,0.171 -1.476,0.282 -1.167,0.59 0.473,0.473 4.492,-0.805 5.052,-0.892 4.86,-0.76 10.123,-1.206 14.987,-0.223 2.115,0.427 5.116,1.565 4.54,4.278 -0.729,3.436 -3.54,5.029 -6.483,6.443 -5.094,2.449 -10.416,4.386 -15.787,6.129 -2.302,0.747 -4.63,1.411 -6.968,2.034 -0.622,0.166 -1.376,0.367 -2.008,0.525 -0.483,0.121 -1.932,0.283 -1.444,0.38 3.785,0.757 9.346,-1.239 13.307,-1.259 2.303,-0.012 5.403,-0.026 7.31,1.509 2.982,2.4 -1.328,5.85 -3.373,6.693 -3.306,1.363 -7.059,1.132 -10.551,1.548 -5.33,0.635 -15.354,2.597 -20.478,4.199 z" />
							<g
   id="XMLID_185_">
								
									<path
   id="XMLID_117_"
   style="fill:none;stroke:#3d6326;stroke-width:1.5;stroke-linecap:round;stroke-linejoin:round;stroke-miterlimit:1.5"
   d="m 446.439,163.858 c 0,0 -61.182,57.166 -63.464,213.808" />
								
									<path
   id="XMLID_179_"
   style="fill:none;stroke:#3d6326;stroke-width:1.5;stroke-linecap:round;stroke-linejoin:round;stroke-miterlimit:1.5"
   d="m 419.804,181.269 c 0.763,5.468 1.526,10.935 2.289,16.403" />
								
									<path
   id="XMLID_180_"
   style="fill:none;stroke:#3d6326;stroke-width:1.5;stroke-linecap:round;stroke-linejoin:round;stroke-miterlimit:1.5"
   d="m 447.663,183.382 c -7.676,2.112 -15.084,5.2 -21.987,9.166" />
								
									<path
   id="XMLID_181_"
   style="fill:none;stroke:#3d6326;stroke-width:1.5;stroke-linecap:round;stroke-linejoin:round;stroke-miterlimit:1.5"
   d="m 404.007,199.261 c 1.761,7.904 3.748,17.273 5.957,25.063" />
								
									<path
   id="XMLID_182_"
   style="fill:none;stroke:#3d6326;stroke-width:1.5;stroke-linecap:round;stroke-linejoin:round;stroke-miterlimit:1.5"
   d="m 436.464,216.117 c -9.797,2.836 -19.173,7.12 -27.73,12.669" />
								
									<path
   id="XMLID_183_"
   style="fill:none;stroke:#3d6326;stroke-width:1.5;stroke-linecap:round;stroke-linejoin:round;stroke-miterlimit:1.5"
   d="m 386.717,235.393 c 3.632,8.099 7.531,16.078 11.687,23.92" />
								
									<path
   id="XMLID_184_"
   style="fill:none;stroke:#3d6326;stroke-width:1.5;stroke-linecap:round;stroke-linejoin:round;stroke-miterlimit:1.5"
   d="m 423.337,261.829 c -10.162,2.841 -19.893,7.218 -28.76,12.936" />
							</g>
						</g>
						<g
   id="XMLID_187_">
							<path
   id="XMLID_116_"
   style="fill:#288740"
   d="m 385.359,338.856 c 3.428,0.86 13.759,-22.881 17.224,-29.782 1.182,-2.353 2.865,-5.889 1.633,-8.567 -0.839,-1.825 -3.531,-0.646 -4.777,-0.061 -3.572,1.678 -6.565,4.774 -8.993,7.824 -0.885,1.111 -1.739,2.249 -2.571,3.4 -0.438,0.604 -0.488,0.697 -0.89,1.267 -0.145,0.206 -0.484,0.848 -0.463,0.597 0.196,-2.352 2.968,-5.664 4.021,-7.665 3.139,-5.963 6.527,-11.808 8.701,-18.218 0.885,-2.606 2.39,-10.782 -2.9,-7.934 -4.128,2.223 -6.877,7.052 -9.261,10.895 -0.31,0.498 -2.113,4.314 -2.742,4.314 -0.405,0 0.244,-0.773 0.402,-1.146 0.221,-0.521 0.448,-1.039 0.67,-1.559 0.972,-2.273 2.018,-4.51 3.059,-6.752 2.494,-5.372 5.064,-10.763 6.873,-16.414 0.688,-2.152 1.672,-5.011 1.243,-7.312 -0.649,-3.473 -6.653,2.317 -7.227,2.949 -0.528,0.582 -0.904,1.017 -1.413,1.621 -0.483,0.572 -0.961,1.155 -1.426,1.742 -0.76,0.96 -1.486,1.946 -2.206,2.937 -2.188,3.016 -3.65,6.511 -5.813,9.505 -0.251,0.348 0.281,-0.812 0.451,-1.206 0.295,-0.683 0.594,-1.365 0.89,-2.047 0.953,-2.197 1.931,-4.383 2.961,-6.544 2.653,-5.568 5.861,-10.958 7.726,-16.866 0.686,-2.17 1.81,-5.86 -0.365,-7.653 -1.763,-1.453 -5.04,1.819 -6.167,2.9 -4.451,4.273 -7.599,10.684 -9.432,16.549 -0.109,0.351 0.231,-0.698 0.342,-1.048 0.236,-0.746 0.466,-1.493 0.694,-2.242 0.734,-2.407 1.46,-4.818 2.23,-7.214 1.787,-5.559 3.98,-11.213 4.278,-17.098 0.094,-1.867 0.279,-5.266 -1.451,-6.617 -1.488,-1.162 -3.386,1.42 -4.179,2.328 -3.669,4.2 -5.374,9.59 -8.701,13.868 -0.33,0.423 0.289,-1.033 0.438,-1.548 0.198,-0.679 0.398,-1.357 0.597,-2.035 0.818,-2.776 1.6,-5.572 2.182,-8.408 1.453,-7.084 2.813,-20.119 -3.729,-25.384 -2.411,-1.941 -4.178,1.692 -4.984,3.546 -1.697,3.902 -2.622,8.227 -3.413,12.393 -0.266,1.404 -0.026,3.553 -0.597,4.838 -0.188,0.423 -0.131,-0.917 -0.182,-1.377 -0.114,-1.018 -0.255,-2.037 -0.427,-3.046 -0.503,-2.953 -1.48,-5.909 -2.571,-8.689 -2.863,-7.293 -8.848,-13.934 -15.526,-17.902 -1.805,-1.072 -5.162,-3.437 -7.445,-2.9 -2.507,0.59 -1.33,7.475 -0.914,9.018 1.838,6.826 6.23,12.576 10.309,18.218 1.134,1.568 2.42,3.018 3.62,4.533 0.139,0.177 1.037,1.054 0.974,1.304 -0.151,0.606 -0.947,-0.816 -1.462,-1.17 -1.175,-0.806 -2.442,-1.409 -3.753,-1.962 -3.594,-1.513 -10.45,-4.943 -13.393,-0.621 -1.464,2.151 -0.294,5.23 1.097,7.105 3.341,4.503 8.494,7.146 13.198,9.968 1.19,0.714 4.185,1.827 4.947,3.046 0.342,0.548 -1.261,-0.294 -1.864,-0.524 -1.207,-0.459 -2.37,-1.031 -3.559,-1.535 -3.543,-1.503 -8.704,-3.944 -12.393,-1.572 -5.973,3.84 3.551,10.517 6.52,12.113 0.505,0.272 2.59,1.348 3.109,1.648 2.791,1.618 5.494,3.381 8.335,4.911 0.307,0.166 3.157,1.403 3.157,1.816 0,0.064 -2.632,-0.347 -2.742,-0.366 -1.53,-0.257 -3.051,-0.551 -4.595,-0.719 -2.909,-0.316 -14.038,-0.017 -12.186,5.594 1.39,4.211 10.541,4.744 14.014,5.24 1.676,0.239 3.348,0.498 5.021,0.756 0.034,0.005 1.367,0.161 1.328,0.316 -0.096,0.387 -3.908,0.436 -4.301,0.476 -4.063,0.408 -8.462,0.66 -12.162,2.547 -1.204,0.613 -3.405,1.662 -3.059,3.363 0.392,1.927 2.859,3.252 4.387,4.131 5.117,2.944 10.939,4.106 16.707,5.021 1.218,0.193 5.071,-0.145 5.996,0.719 0.048,0.044 -2.692,0.426 -2.864,0.439 -1.662,0.122 -3.306,0.302 -4.935,0.67 -3.978,0.899 -8.167,2.418 -11.516,4.789 -1.614,1.142 -3.524,3.146 -2.852,5.337 0.996,3.242 5.229,3.664 8.019,3.912 4.241,0.378 8.516,0.458 12.771,0.39 1.589,-0.025 5.002,-0.841 6.507,-0.207 0.17,0.071 -2.22,1.035 -2.291,1.06 -1.691,0.603 -3.352,1.292 -4.996,2.011 -3.799,1.662 -13.97,5.033 -12.881,10.809 0.5,2.653 3.851,3.431 6.069,3.9 3.895,0.823 7.972,1.045 11.942,0.902 1.671,-0.061 4.315,-0.793 5.96,-0.293 0.728,0.222 -1.385,0.641 -2.109,0.877 -1.323,0.433 -2.664,0.815 -3.997,1.219 -3.743,1.136 -10.168,2.844 -9.432,8.043 0.374,2.641 3.178,4.327 5.52,4.558 7.444,0.734 27.985,-0.029 27.985,-0.029 z" />
							<g
   id="XMLID_177_">
								
									<path
   id="XMLID_115_"
   style="fill:none;stroke:#075d2a;stroke-width:1.5;stroke-linecap:round;stroke-linejoin:round;stroke-miterlimit:1.5"
   d="m 344.249,215.251 c 0,0 39.734,68.537 41.716,160.432" />
								
									<path
   id="XMLID_171_"
   style="fill:none;stroke:#075d2a;stroke-width:1.5;stroke-linecap:round;stroke-linejoin:round;stroke-miterlimit:1.5"
   d="m 342.614,251.883 c 5.51,1.474 17.057,7.537 22.493,12.297" />
								
									<path
   id="XMLID_172_"
   style="fill:none;stroke:#075d2a;stroke-width:1.5;stroke-linecap:round;stroke-linejoin:round;stroke-miterlimit:1.5"
   d="m 364.826,226.921 c -1.077,7.279 -2.643,14.485 -4.684,21.554" />
								
									<path
   id="XMLID_173_"
   style="fill:none;stroke:#075d2a;stroke-width:1.5;stroke-linecap:round;stroke-linejoin:round;stroke-miterlimit:1.5"
   d="m 378.865,267.977 c -2.01,5.521 -4.25,10.956 -6.489,16.388" />
								
									<path
   id="XMLID_174_"
   style="fill:none;stroke:#075d2a;stroke-width:1.5;stroke-linecap:round;stroke-linejoin:round;stroke-miterlimit:1.5"
   d="m 360.856,298.599 c 4.923,-0.27 9.884,0.149 14.692,1.242" />
								
									<path
   id="XMLID_175_"
   style="fill:none;stroke:#075d2a;stroke-width:1.5;stroke-linecap:round;stroke-linejoin:round;stroke-miterlimit:1.5"
   d="m 388.412,299.077 c -3.081,5.436 -6.162,10.873 -9.242,16.309" />
								
									<path
   id="XMLID_176_"
   style="fill:none;stroke:#075d2a;stroke-width:1.5;stroke-linecap:round;stroke-linejoin:round;stroke-miterlimit:1.5"
   d="m 366.589,331.658 c 4.923,-0.758 9.94,-0.904 14.899,-0.432" />
							</g>
						</g>
						<g
   id="XMLID_186_">
							<path
   id="XMLID_114_"
   style="fill:#0b6a2d"
   d="m 393.459,341.894 c -3.327,-7.763 -6.393,-15.306 -7.363,-23.81 -0.354,-3.103 -1.154,-8.453 2.241,-10.345 1.531,-0.853 2.426,1.768 2.822,2.742 1.475,3.633 2.316,7.529 3.295,11.313 0.29,1.12 0.574,2.243 0.88,3.359 0.02,0.072 0.559,1.553 0.567,1.538 0.891,-1.607 -0.378,-6.551 -0.467,-8.293 -0.345,-6.749 -0.504,-13.486 0.965,-20.125 0.614,-2.771 1.228,-7.363 4.52,-8.244 2.127,-0.569 3.14,1.348 3.51,3.159 0.895,4.391 0.582,9.165 0.396,13.609 -0.057,1.366 -0.121,2.731 -0.155,4.097 -0.019,0.755 -0.265,2.951 0.055,2.266 4.626,-9.892 2.813,-22.134 9.71,-31.443 1.944,-2.624 8.746,-9.326 8.636,-2.063 -0.018,1.194 -0.048,1.454 -0.189,2.678 -0.714,6.204 -3.014,13.712 -5.382,19.849 -0.183,0.474 4.015,-8.582 5.47,-11.002 3.311,-5.507 7.044,-11.45 12.18,-15.439 1.553,-1.206 3.949,-3.092 6.035,-3.108 2.943,-0.023 0.552,4.9 0.068,6.148 -2.214,5.713 -5.131,10.769 -7.997,16.719 -0.128,0.266 4.415,-6.708 5.962,-8.591 4.373,-5.324 12.425,-13.563 20.063,-13.145 2.903,0.159 2.455,2.641 1.523,4.63 -2.065,4.405 -5.16,8.52 -8.278,12.228 -0.27,0.32 -3.689,3.511 -3.513,3.98 0.006,0.017 2.724,-1.366 2.856,-1.427 2.337,-1.078 4.751,-2.012 7.163,-2.906 6.579,-2.439 13.232,-2.715 20.157,-2.223 1.771,0.125 5.49,0.248 6.069,2.492 1.395,5.408 -10.077,7.774 -13.086,8.571 -1.477,0.39 -2.962,0.749 -4.453,1.083 -1.81,0.405 -3.627,0.777 -5.444,1.149 -0.854,0.174 -6.936,0.681 -7.35,1.614 -0.058,0.131 5.738,2.099 6.013,2.203 3.6,1.376 13.361,5.304 13.288,10.25 -0.039,2.633 -2.75,3.331 -4.931,3.426 -5.115,0.223 -10.505,-1.135 -15.357,-2.598 -1.873,-0.564 -3.711,-1.225 -5.56,-1.864 -0.8,-0.277 -2.346,-1.626 -2.416,-0.782 -0.036,0.43 3.226,2.197 3.548,2.437 2.528,1.887 6.567,4.67 7.602,7.84 0.954,2.923 -4.253,2.868 -5.893,2.852 -4.787,-0.049 -9.606,-1.46 -14.215,-2.626 -1.515,-0.383 -4.222,-1.722 -5.806,-1.469 -0.294,0.047 0.489,0.34 0.743,0.495 0.689,0.42 1.39,0.826 2.064,1.269 1.365,0.894 8.265,5.394 6.308,7.602 -1.142,1.289 -3.679,1.376 -5.248,1.541 -4.721,0.497 -9.478,-0.055 -14.184,-0.439 -1.019,-0.083 -5.388,-1.188 -6.268,-0.532 -0.839,0.625 1.864,0.957 2.811,1.403 1.261,0.595 8.107,3.511 6.305,5.773 -1.528,1.92 -5.287,1.994 -7.46,2.261 -6.457,0.796 -22.81,-0.102 -22.81,-0.102 z" />
							<g
   id="XMLID_178_">
								
									<path
   id="XMLID_113_"
   style="fill:none;stroke:#144731;stroke-width:1.5;stroke-linecap:round;stroke-linejoin:round;stroke-miterlimit:1.5"
   d="m 472.059,293.489 c 0,0 -70.996,7.512 -84.69,66.885" />
								
									<path
   id="XMLID_164_"
   style="fill:none;stroke:#144731;stroke-width:1.5;stroke-linecap:round;stroke-linejoin:round;stroke-miterlimit:1.5"
   d="m 434.994,304.23 c 3.032,-3.87 5.942,-7.836 8.724,-11.889" />
								
									<path
   id="XMLID_165_"
   style="fill:none;stroke:#144731;stroke-width:1.5;stroke-linecap:round;stroke-linejoin:round;stroke-miterlimit:1.5"
   d="m 411.369,319.739 c 1.222,-4.386 2.443,-8.773 3.665,-13.159" />
								
									<path
   id="XMLID_166_"
   style="fill:none;stroke:#144731;stroke-width:1.5;stroke-linecap:round;stroke-linejoin:round;stroke-miterlimit:1.5"
   d="m 421.264,312.447 c 5.372,0.312 10.696,1.442 15.732,3.34" />
								
									<path
   id="XMLID_168_"
   style="fill:none;stroke:#144731;stroke-width:1.5;stroke-linecap:round;stroke-linejoin:round;stroke-miterlimit:1.5"
   d="m 399.078,334.248 c 3.798,-0.863 7.817,-0.729 11.549,0.384" />
								
									<path
   id="XMLID_169_"
   style="fill:none;stroke:#144731;stroke-width:1.5;stroke-linecap:round;stroke-linejoin:round;stroke-miterlimit:1.5"
   d="m 403.634,327.795 c 0.25,-3.146 0.248,-6.313 -0.006,-9.459" />
							</g>
						</g>
					</g>
					<g
   id="XMLID_163_">
						<path
   id="XMLID_112_"
   style="fill:#575573;fill-opacity:1"
   d="m 416.859,338.428 h -54.743 l 9.688,64.971 h 36.305 z" />
						<g
   id="XMLID_199_"
   style="fill:#9188f2;fill-opacity:1">
							<defs
   id="defs1">
								<polygon
   id="XMLID_111_"
   points="371.804,403.399 408.109,403.399 416.859,338.428 362.116,338.428 " />
							</defs>
							<clipPath
   id="XMLID_00000011016216328745326130000012610354184377464715_">
								<use
   xlink:href="#XMLID_111_"
   style="overflow:visible"
   id="use1" />
							</clipPath>
							<path
   id="XMLID_110_"
   style="fill:#9188f2;fill-opacity:1"
   d="m 411.419,335.266 h -54.743 l 9.688,62.164 h 36.305 z"
   clip-path="url(#XMLID_00000011016216328745326130000012610354184377464715_)" />
						</g>
					</g>
				</g>
			</g>
			
			
			<g
   id="XMLID_162_"
   inkscape:label="XMLID_162_">
				<g
   id="XMLID_160_">
					<path
   id="XMLID_29_"
   style="fill:#5f7092"
   d="m 120.996,149.872 -14.063,40.458 h 17.913 l 10.732,-33.815 z" />
					<g
   id="XMLID_159_">
						<path
   id="XMLID_28_"
   style="fill:#8bb3cc"
   d="m 165.474,122.701 h -52.856 l 8.378,67.629 h 52.856 z" />
						<path
   id="XMLID_18_"
   style="fill:#7d98b6"
   d="m 112.618,122.701 h -2.275 l 8.379,67.629 h 2.274 z" />
					</g>
					<g
   id="XMLID_158_">
						<g
   id="g3">
							<path
   id="XMLID_24_"
   style="fill:#f3feff"
   d="m 139.958,125.727 -21.645,13.284 -1.646,-13.284 z" />
							<path
   id="XMLID_23_"
   style="fill:#f3feff"
   d="m 119.13,145.601 -0.52,-4.191 25.554,-15.683 h 7.349 z" />
							<path
   id="XMLID_22_"
   style="fill:#f3feff"
   d="m 164.884,147.601 -42.291,25.955 -0.519,-4.191 42.291,-25.955 z" />
							<path
   id="XMLID_21_"
   style="fill:#f3feff"
   d="m 167.982,172.606 -23.95,14.698 h -3.674 l 27.364,-16.794 z" />
							<path
   id="XMLID_20_"
   style="fill:#f3feff"
   d="m 169.803,187.304 h -20.165 l 18.74,-11.501 z" />
						</g>
						<g
   id="XMLID_157_">
							<path
   id="XMLID_27_"
   style="fill:#cbf2fd"
   d="m 122.593,173.556 42.291,-25.955 2.838,22.909 -27.364,16.794 h -16.062 z" />
							<path
   id="XMLID_26_"
   style="fill:#cbf2fd"
   d="m 168.378,175.803 -18.74,11.501 h -5.606 l 23.95,-14.698 z" />
							<path
   id="XMLID_25_"
   style="fill:#cbf2fd"
   d="m 164.365,143.41 -42.291,25.955 -2.944,-23.764 32.383,-19.874 h 10.661 z" />
							<path
   id="XMLID_19_"
   style="fill:#cbf2fd"
   d="m 118.61,141.41 -0.297,-2.399 21.645,-13.284 h 4.206 z" />
						</g>
					</g>
				</g>
				<g
   id="XMLID_156_">
					<g
   id="XMLID_154_">
						<g
   id="XMLID_153_">
							<g
   id="XMLID_1_">
								<path
   id="XMLID_17_"
   style="fill:#779923"
   d="m 63.101,175.536 c 0,0 -16.686,-53.137 9.315,-55.167 31.582,-2.466 14.141,54.957 14.141,54.957 z" />
								<g
   id="XMLID_155_">
									<defs
   id="defs3">
										<path
   id="XMLID_16_"
   d="m 63.101,175.536 c 0,0 -16.686,-53.137 9.315,-55.167 31.582,-2.466 14.141,54.957 14.141,54.957 z" />
									</defs>
									<clipPath
   id="XMLID_00000071538689542979108560000004459094238289758083_">
										<use
   xlink:href="#XMLID_16_"
   style="overflow:visible"
   id="use3" />
									</clipPath>
									
										<path
   id="XMLID_15_"
   style="fill:#8cab23"
   d="m 65.414,157.732 c -5.344,-9.351 -6.701,-35.548 14.7,-41.571 30.493,-8.582 13.427,46.275 13.427,46.275 0,0 -19.454,10.469 -28.127,-4.704 z"
   clip-path="url(#XMLID_00000071538689542979108560000004459094238289758083_)" />
									
										<path
   id="XMLID_14_"
   style="fill:none;stroke:#577c2e;stroke-width:0.75;stroke-linecap:round;stroke-linejoin:round;stroke-miterlimit:1.5"
   d="m 78.099,121.441 c 0,0 16.616,12.52 3.919,52.019"
   clip-path="url(#XMLID_00000071538689542979108560000004459094238289758083_)" />
									
										<path
   id="XMLID_13_"
   style="fill:none;stroke:#577c2e;stroke-width:0.75;stroke-linecap:round;stroke-linejoin:round;stroke-miterlimit:1.5"
   d="m 74.532,121 c 0,0 -0.112,22.526 0.432,52.949"
   clip-path="url(#XMLID_00000071538689542979108560000004459094238289758083_)" />
									
										<path
   id="XMLID_12_"
   style="fill:none;stroke:#577c2e;stroke-width:0.75;stroke-linecap:round;stroke-linejoin:round;stroke-miterlimit:1.5"
   d="m 70.581,121.402 c 0,0 -17.467,12.175 -1.091,51.857"
   clip-path="url(#XMLID_00000071538689542979108560000004459094238289758083_)" />
								</g>
							</g>
							<g
   id="XMLID_150_">
								
									<path
   id="XMLID_133_"
   style="fill:none;stroke:#274f1d;stroke-width:0.75;stroke-linecap:round;stroke-linejoin:round;stroke-miterlimit:1.5"
   d="m 81.772,125.262 c 0.822,-0.853 1.686,-1.664 2.588,-2.431" />
								
									<path
   id="XMLID_134_"
   style="fill:none;stroke:#274f1d;stroke-width:0.75;stroke-linecap:round;stroke-linejoin:round;stroke-miterlimit:1.5"
   d="m 85.956,135.808 c 0.811,-0.457 1.621,-0.915 2.432,-1.372" />
								
									<path
   id="XMLID_135_"
   style="fill:none;stroke:#274f1d;stroke-width:0.75;stroke-linecap:round;stroke-linejoin:round;stroke-miterlimit:1.5"
   d="m 87.574,148.946 c 0.715,0.144 1.429,0.288 2.144,0.431" />
								
									<path
   id="XMLID_136_"
   style="fill:none;stroke:#274f1d;stroke-width:0.75;stroke-linecap:round;stroke-linejoin:round;stroke-miterlimit:1.5"
   d="m 85.935,161.848 c 0.817,0.168 1.614,0.437 2.365,0.798" />
								
									<path
   id="XMLID_137_"
   style="fill:none;stroke:#274f1d;stroke-width:0.75;stroke-linecap:round;stroke-linejoin:round;stroke-miterlimit:1.5"
   d="m 68.638,122.88 c -0.789,-0.714 -1.508,-1.505 -2.142,-2.36" />
								
									<path
   id="XMLID_138_"
   style="fill:none;stroke:#274f1d;stroke-width:0.75;stroke-linecap:round;stroke-linejoin:round;stroke-miterlimit:1.5"
   d="m 64.542,130.274 c -0.756,-0.182 -1.511,-0.364 -2.267,-0.546" />
								
									<path
   id="XMLID_139_"
   style="fill:none;stroke:#274f1d;stroke-width:0.75;stroke-linecap:round;stroke-linejoin:round;stroke-miterlimit:1.5"
   d="m 62.708,139.66 c -0.856,0.014 -1.714,-0.061 -2.556,-0.222" />
								
									<path
   id="XMLID_140_"
   style="fill:none;stroke:#274f1d;stroke-width:0.75;stroke-linecap:round;stroke-linejoin:round;stroke-miterlimit:1.5"
   d="m 64.331,158.146 c -0.979,0.497 -1.958,0.994 -2.937,1.491" />
								
									<path
   id="XMLID_147_"
   style="fill:none;stroke:#274f1d;stroke-width:0.75;stroke-linecap:round;stroke-linejoin:round;stroke-miterlimit:1.5"
   d="m 75.014,126.103 c 0.616,-0.353 1.208,-0.749 1.769,-1.183" />
								
									<path
   id="XMLID_148_"
   style="fill:none;stroke:#274f1d;stroke-width:0.75;stroke-linecap:round;stroke-linejoin:round;stroke-miterlimit:1.5"
   d="m 74.852,145.806 c 1.234,-0.759 2.467,-1.519 3.701,-2.278" />
								
									<path
   id="XMLID_149_"
   style="fill:none;stroke:#274f1d;stroke-width:0.75;stroke-linecap:round;stroke-linejoin:round;stroke-miterlimit:1.5"
   d="m 75.101,159.125 c 1.339,-0.223 2.645,-0.646 3.86,-1.252" />
							</g>
						</g>
						<g
   id="XMLID_152_">
							<g
   id="XMLID_131_">
								<path
   id="XMLID_11_"
   style="fill:#91aa2f"
   d="m 59.455,152.038 c 0,0 -12.35,3.758 -16.548,-6.208 -3.646,-8.655 2.089,-20.608 6.293,-20.473 6.92,0.221 2.125,10.187 4.584,13.437 1.357,1.793 6.305,2.095 6.305,2.095 1.612,3.983 1.674,7.655 -0.634,11.149 z" />
								<g
   id="XMLID_167_">
									<defs
   id="defs4">
										<path
   id="XMLID_10_"
   d="m 59.455,152.038 c 0,0 -12.35,3.758 -16.548,-6.208 -3.646,-8.655 2.089,-20.608 6.293,-20.473 6.92,0.221 2.125,10.187 4.584,13.437 1.357,1.793 6.305,2.095 6.305,2.095 1.612,3.983 1.674,7.655 -0.634,11.149 z" />
									</defs>
									<clipPath
   id="XMLID_00000178898032208838063520000011579041872942107828_">
										<use
   xlink:href="#XMLID_10_"
   style="overflow:visible"
   id="use4" />
									</clipPath>
									<g
   id="XMLID_170_"
   clip-path="url(#XMLID_00000178898032208838063520000011579041872942107828_)">
										<path
   id="XMLID_9_"
   style="fill:#b0be49"
   d="m 61.242,149.335 c 0,0 -12.35,3.758 -16.548,-6.208 -3.646,-8.655 2.089,-20.607 6.293,-20.473 6.92,0.221 2.125,10.187 4.584,13.437 1.357,1.793 6.305,2.095 6.305,2.095 1.612,3.983 1.674,7.655 -0.634,11.149 z" />
									</g>
									
										<path
   id="XMLID_8_"
   style="fill:none;stroke:#577c2e;stroke-width:0.75;stroke-linecap:round;stroke-linejoin:round;stroke-miterlimit:1.5"
   d="m 49.739,127.489 c 0,0 -1.394,10.62 2.649,13.241 4.528,2.934 7.418,1.979 7.418,1.979"
   clip-path="url(#XMLID_00000178898032208838063520000011579041872942107828_)" />
									
										<path
   id="XMLID_7_"
   style="fill:none;stroke:#577c2e;stroke-width:0.75;stroke-linecap:round;stroke-linejoin:round;stroke-miterlimit:1.5"
   d="m 45.034,129.325 c 0,0 -4.171,13.615 2.057,18.011 6.173,4.358 13.083,2.254 13.083,2.254"
   clip-path="url(#XMLID_00000178898032208838063520000011579041872942107828_)" />
								</g>
							</g>
							<g
   id="XMLID_151_">
								
									<path
   id="XMLID_141_"
   style="fill:none;stroke:#274f1d;stroke-width:0.75;stroke-linecap:round;stroke-linejoin:round;stroke-miterlimit:1.5"
   d="m 49.711,129.522 c 0.769,-0.646 1.592,-1.227 2.458,-1.736" />
								
									<path
   id="XMLID_142_"
   style="fill:none;stroke:#274f1d;stroke-width:0.75;stroke-linecap:round;stroke-linejoin:round;stroke-miterlimit:1.5"
   d="m 50.759,138.263 c 0.833,-0.452 1.635,-0.96 2.401,-1.517" />
								
									<path
   id="XMLID_143_"
   style="fill:none;stroke:#274f1d;stroke-width:0.75;stroke-linecap:round;stroke-linejoin:round;stroke-miterlimit:1.5"
   d="m 56.265,142.418 c 0.108,-0.663 0.272,-1.316 0.49,-1.951" />
								
									<path
   id="XMLID_144_"
   style="fill:none;stroke:#274f1d;stroke-width:0.75;stroke-linecap:round;stroke-linejoin:round;stroke-miterlimit:1.5"
   d="m 43.984,133.323 c -0.852,-0.039 -1.705,-0.078 -2.557,-0.118" />
								
									<path
   id="XMLID_145_"
   style="fill:none;stroke:#274f1d;stroke-width:0.75;stroke-linecap:round;stroke-linejoin:round;stroke-miterlimit:1.5"
   d="m 44.381,144.235 c -0.838,0.452 -1.724,0.813 -2.639,1.075" />
								
									<path
   id="XMLID_146_"
   style="fill:none;stroke:#274f1d;stroke-width:0.75;stroke-linecap:round;stroke-linejoin:round;stroke-miterlimit:1.5"
   d="m 51.352,150.193 c -0.244,0.851 -0.487,1.702 -0.731,2.553" />
							</g>
						</g>
					</g>
					<g
   id="XMLID_132_">
						<path
   id="XMLID_6_"
   style="fill:#575573;fill-opacity:1"
   d="m 49.513,166.111 h 50.128 c 0,0 2.07,26.839 -25.064,26.474 -24.628,-0.332 -25.064,-26.474 -25.064,-26.474 z" />
						<g
   id="g5">
							<defs
   id="defs5">
								<path
   id="XMLID_5_"
   d="m 49.513,166.111 h 50.128 c 0,0 2.07,26.839 -25.064,26.474 -24.628,-0.332 -25.064,-26.474 -25.064,-26.474 z" />
							</defs>
							<clipPath
   id="XMLID_00000028287475881800517350000010669815656173776785_">
								<use
   xlink:href="#XMLID_5_"
   style="overflow:visible"
   id="use5" />
							</clipPath>
							<path
   id="XMLID_4_"
   style="fill:#9188f2;fill-opacity:1"
   d="m 53.774,162.113 h 50.128 c 0,0 2.07,26.839 -25.064,26.473 C 54.21,188.255 53.774,162.113 53.774,162.113 Z"
   clip-path="url(#XMLID_00000028287475881800517350000010669815656173776785_)" />
						</g>
					</g>
				</g>
				<g
   id="XMLID_161_">
					<rect
   id="XMLID_3_"
   x="32.624001"
   y="189.282"
   style="fill:#9a5933"
   width="162.78999"
   height="6.6199999" />
					<rect
   id="XMLID_2_"
   x="32.624001"
   y="189.282"
   style="fill:#733b29"
   width="22.826"
   height="6.6199999" />
				</g>
			</g><g
   id="XMLID_227_"
   transform="translate(-48.625639,3.7988777)">
				<path
   id="XMLID_70_"
   style="fill:#809b3a"
   d="M 393.552,431.805 H 119.13 l 75.059,17.07 h 274.423 z" />
				<g
   id="XMLID_38_">
					<path
   id="XMLID_69_"
   style="fill:#f1af8d"
   d="m 230.086,270.314 c 0,0 -2.594,-39.169 -1.699,-50.214 0.426,-5.257 -1.139,-10.198 -0.211,-16.613 1.144,-7.903 7.273,-45.692 7.273,-45.692 l 8.819,2.495 c -0.68,4.594 -7.339,61.617 1.542,91.995 z" />
					<g
   id="XMLID_204_">
						<path
   id="XMLID_68_"
   style="fill:#f1af8d"
   d="m 243.261,152.236 c 0,0 7.267,1.458 9.168,3.356 1.9,1.898 7.666,2.191 7.609,3.266 -0.056,1.075 -17.843,-0.4 -17.843,-0.4 z" />
						<path
   id="XMLID_67_"
   style="fill:#f1af8d"
   d="m 243.653,161.11 -8.444,-1.698 c 0,0 -0.374,-6.695 2.963,-8.103 3.337,-1.407 6.979,0.491 8.237,1.449 1.575,1.199 2.389,3.907 5.495,6.567 2.482,2.126 9.028,1.283 7.789,3.429 -0.349,0.604 -9.386,-0.174 -9.386,-0.174 z" />
						<path
   id="XMLID_66_"
   style="fill:#ffd7ac"
   d="m 268.662,151.216 c 0,0 -5.813,1.429 -8.322,3.423 -2.509,1.995 -8.724,2.863 -8.724,2.863 l 2.146,4.766 14.001,-5.091 z" />
						<path
   id="XMLID_65_"
   style="fill:#ffd7ac"
   d="m 266.076,160.232 c 0,0 -5.268,1.293 -7.647,1.734 -2.684,0.497 -9.931,-0.236 -9.928,-0.89 0.007,-1.606 4.433,-2.021 7.844,-3.449 3.13,-1.31 4.903,-2.841 5.73,-3.25 1.728,-0.854 4.795,-4.247 10.767,-3.275 3.967,0.646 1.709,9.035 1.709,9.035 z" />
						
							<path
   id="XMLID_64_"
   style="fill:#f1af8d;stroke:#8b4b43;stroke-width:0.45;stroke-linecap:round;stroke-linejoin:round;stroke-miterlimit:1.5"
   d="m 242.504,158.665 c 0,0 11.066,2.523 12.616,2.882 1.55,0.36 1.218,-2.531 -4.224,-4.207 0,0 -2.67,-3.523 -7.102,-4.904" />
						
							<path
   id="XMLID_63_"
   style="fill:#ffd7ac;stroke:#8b4b43;stroke-width:0.45;stroke-linecap:round;stroke-linejoin:round;stroke-miterlimit:1.5"
   d="m 265.207,158.522 c 0,0 -3.35,0.983 -5.443,1.678 -2.784,0.926 -6.905,2.322 -7.149,1.853 -0.903,-1.738 3.544,-3.029 4.147,-3.625 0.762,-0.753 1.523,-3.587 6.01,-4.682" />
					</g>
					<g
   id="XMLID_203_">
						<path
   id="XMLID_62_"
   style="fill:#9087f1;fill-opacity:1"
   d="m 258.922,229.5 c 0,0 -2.061,11.657 3.285,16.589 5.346,4.933 12.682,6.983 11.35,18.206 -1.332,11.223 -6.756,29.367 -5.273,35.269 1.484,5.903 10.818,14.933 10.818,14.933 l -40.682,10.38 c 0,0 -12.214,-31.96 -11.558,-47.018 0.655,-15.058 9.435,-26.929 12.003,-28.863 2.73,-2.055 5.037,-0.797 5.74,-0.949 0.291,-0.063 0.661,-0.094 0.789,-0.959 0.472,-3.175 -0.726,-13.137 -0.726,-13.137 z" />
						<path
   id="XMLID_61_"
   style="fill:#fdc79c"
   d="m 268.745,289.987 c -0.668,4.112 -0.968,7.56 -0.461,9.577 1.484,5.903 10.818,14.933 10.818,14.933 l -40.682,10.38 c 0,0 -6.623,-17.331 -9.853,-32.482 7.08,0.865 24.028,2.166 40.178,-2.408 z" />
						<g
   id="XMLID_202_">
							<path
   id="XMLID_60_"
   style="fill:#fdc79c"
   d="m 240.787,263.694 c -8.209,-0.107 3.338,-14.904 3.99,-15.368 0.306,-0.218 0.522,-0.599 0.617,-1.238 0.472,-3.175 -0.726,-13.137 -0.726,-13.137 l 14.254,-4.451 c 0,0 -2.061,11.657 3.285,16.589 0.428,0.396 0.869,0.772 1.317,1.137 -10.805,1.774 -12.744,16.599 -22.737,16.468 z" />
							<path
   id="XMLID_59_"
   style="fill:#ed8c6e"
   d="m 244.944,248.181 c 0.218,-0.229 0.374,-0.577 0.45,-1.093 0.472,-3.175 -0.726,-13.137 -0.726,-13.137 l 14.254,-4.451 c 0,0 -0.868,4.91 -0.016,9.705 -2.401,3.144 -7.215,8.156 -13.962,8.976 z" />
						</g>
					</g>
					<g
   id="XMLID_201_">
						<path
   id="XMLID_58_"
   style="fill:#21101d"
   d="m 259.536,206.836 c 0,0 2.275,-10.432 11.037,-12.02 7.539,-1.366 13.593,3.615 13.972,12.469 0.483,11.307 -5.085,14.669 -2.163,25.133 1.614,5.778 8.231,5.393 6.592,7.468 -2.952,3.734 -9.091,0.355 -9.091,0.355 0,0 7.624,6.741 5.35,7.306 -5.917,1.469 -10.842,-2.505 -13.183,-6.928 0,0 2.12,7.448 -0.499,7.252 -3.276,-0.245 -6.599,-7.192 -5.038,-18.359 2.56,-18.312 -6.977,-22.676 -6.977,-22.676 z" />
						<g
   id="XMLID_197_">
							<path
   id="XMLID_57_"
   style="fill:#ee8d6e"
   d="m 229.45,223.889 c -3.317,-0.453 -6.299,1.291 -6.654,3.893 -0.356,2.601 2.049,5.081 5.367,5.534 3.317,0.453 6.299,-1.291 6.654,-3.893 0.355,-2.601 -2.05,-5.081 -5.367,-5.534 z" />
							<g
   id="XMLID_127_">
								<path
   id="XMLID_56_"
   style="fill:#fdc79c"
   d="m 244.986,198.944 c -12.552,0.791 -18.632,11.148 -17.467,26.329 0.942,12.273 7.289,21.227 13.874,20.735 8.737,-0.653 23.772,-8.737 23.597,-25.009 -0.168,-15.692 -9.221,-22.734 -20.004,-22.055 z" />
								<path
   id="XMLID_55_"
   style="fill:#ee8d6e"
   d="m 258.707,225.671 c 0,0 -2.916,-1.692 -4.314,-4.888 0,0 -13.999,-4.588 -16.795,-10.408 0,0 -6.529,6.087 -10.175,11.534 0,0 2.664,-14.98 9.186,-17.596 6.522,-2.616 23.981,10.954 22.098,21.358 z" />
							</g>
							<g
   id="XMLID_196_">
								<path
   id="XMLID_54_"
   style="fill:#321927"
   d="m 263.183,229.945 c 0,0 -6.592,-4.685 -8.026,-10.145 0,0 -14.995,-3.997 -16.846,-12.694 0,0 -10.371,10.37 -10.9,16.058 0,0 -10.235,-26.623 17.048,-28.435 20.964,-1.392 22.679,12.907 22.778,20.276 0.119,8.773 -4.054,14.94 -4.054,14.94 z" />
								<path
   id="XMLID_53_"
   style="fill:#543241"
   d="m 261.955,199.565 c -3.323,-3.254 -8.725,-5.418 -17.496,-4.836 -20.26,1.345 -19.831,16.373 -18.268,24.021 0.839,-7.155 5.041,-15.317 12.239,-18.985 7.688,-3.918 19.366,-1.326 23.525,-0.2 z" />
							</g>
							<path
   id="XMLID_52_"
   style="fill:#fdc79c"
   d="m 264.024,223.891 c -3.342,0.21 -5.922,2.507 -5.758,5.128 0.164,2.62 3.011,4.578 6.352,4.369 3.342,-0.21 5.922,-2.507 5.758,-5.128 -0.164,-2.62 -3.01,-4.578 -6.352,-4.369 z" />
							<g
   id="XMLID_125_">
								<path
   id="XMLID_51_"
   style="fill:#35415a"
   d="m 244.929,227.604 c -1.941,0.122 -3.178,-1.532 -3.375,-0.673 -0.189,0.825 1.684,1.64 3.625,1.519 1.941,-0.122 3.549,-1.498 3.407,-1.959 -0.281,-0.914 -1.716,0.992 -3.657,1.113 z" />
								<path
   id="XMLID_50_"
   style="fill:#35415a"
   d="m 231.001,228.489 c -1.511,0.071 -2.471,-1.614 -2.625,-0.761 -0.149,0.82 1.308,1.683 2.818,1.612 1.51,-0.071 2.764,-1.405 2.654,-1.869 -0.217,-0.921 -1.337,0.947 -2.847,1.018 z" />
								
									<path
   id="XMLID_49_"
   style="fill:none;stroke:#321927;stroke-linecap:round;stroke-linejoin:round;stroke-miterlimit:1.5"
   d="m 249.275,222.243 c 0,0 -4.315,-3.377 -8.303,-1.768" />
								
									<path
   id="XMLID_48_"
   style="fill:none;stroke:#321927;stroke-linecap:round;stroke-linejoin:round;stroke-miterlimit:1.5"
   d="m 233.068,221.221 c 0,0 -2.498,-1.026 -5.123,1.42" />
								
									<path
   id="XMLID_47_"
   style="fill:none;stroke:#c8645e;stroke-linecap:round;stroke-linejoin:round;stroke-miterlimit:1.5"
   d="m 235.099,227.552 c 0,0 -0.268,3.971 0.822,5.98" />
								
									<path
   id="XMLID_46_"
   style="fill:none;stroke:#c8645e;stroke-linecap:round;stroke-linejoin:round;stroke-miterlimit:1.5"
   d="m 237.27,236.966 c 0,0 3.954,1.838 6.64,-1.631" />
							</g>
						</g>
					</g>
					<g
   id="XMLID_37_">
						<g
   id="XMLID_33_">
							<path
   id="XMLID_215_"
   style="fill:#9188f2;fill-opacity:1"
   d="m 382.054,406.194 -4.21,12.89 c -14.39,-3.81 -27.43,-8.31 -39.16,-13.15 -54.47,-22.42 -80.58,-51.97 -81.16,-52.74 l -0.01,-0.01 c -0.54,0.07 -15.82,2.05 -44.71,7.22 -1.67,0.3 -0.27,17.79 1.46,34.5 v 0.01 c 0.07,0.74 0.15,1.47 0.23,2.2 1.53,14.6 3.23,28 3.23,28 -4.79,2.82 -9.95,3.33 -15.53,1.3 0,0 -3.54,-13.09 -7.54,-28.95 -5.36,-21.2 -11.56,-47.35 -11.32,-53.92 0.42,-11.48 53.91,-21.96 53.91,-21.96 6.07,2.47 13.41,0.64 24.66,-4.65 0.83,-0.38 1.69,-0.8 2.57,-1.23 1.27,-0.62 2.6,-1.29 3.98,-2 0.75,-0.38 1.53,-0.78 2.32,-1.2 1.45,-0.74 2.96,-1.54 4.52,-2.37 9.74,6.31 13.15,12.91 21.32,32 3.83,8.93 24.62,32.87 31.56,37.53 5.68,3.82 11.7,7.32 17.58,10.44 18.89,10.02 36.3,16.09 36.3,16.09 z" />
							<path
   id="XMLID_209_"
   style="fill:#fdc79c"
   d="m 214.494,397.114 c 1.53,14.6 3.23,28 3.23,28 -4.79,2.82 -9.95,3.33 -15.53,1.3 0,0 -3.54,-13.09 -7.54,-28.95 3.94,1.22 10.66,2.22 19.84,-0.35 z" />
							<path
   id="XMLID_208_"
   style="fill:#575573;fill-opacity:1"
   d="m 214.264,394.904 c -4.3,-13.09 -11.49,-36.65 -8.07,-37.98 12.19,-4.73 34.62,-7.61 45.13,-12.64 2.11,3.92 3.59,5.4 6.19,8.9 -0.54,0.07 -15.82,2.05 -44.71,7.22 -1.67,0.3 -0.27,17.79 1.46,34.5 z" />
							<g
   id="XMLID_39_"
   style="fill:#c0baff;fill-opacity:1">
								<g
   id="XMLID_41_"
   style="fill:#c0baff;fill-opacity:1">
									<path
   id="XMLID_211_"
   style="fill:#c0baff;fill-opacity:1"
   d="m 345.574,399.804 c -0.17,0.48 -0.62,0.78 -1.11,0.78 -0.13,0 -0.26,-0.02 -0.39,-0.06 -0.39,-0.14 -39.69,-14.48 -62.89,-59.13 -9.51,-18.32 -16.87,-23.26 -19.28,-24.46 0.83,-0.38 1.69,-0.8 2.57,-1.23 3.65,2.36 10.48,8.58 18.8,24.6 22.75,43.8 61.2,57.86 61.59,58 0.61,0.22 0.93,0.89 0.71,1.5 z" />
								</g>
								<g
   id="XMLID_40_"
   style="fill:#c0baff;fill-opacity:1">
									<path
   id="XMLID_207_"
   style="fill:#c0baff;fill-opacity:1"
   d="m 346.784,394.924 c -0.21,0.41 -0.62,0.65 -1.06,0.65 -0.17,0 -0.35,-0.04 -0.52,-0.13 -23.46,-11.74 -42.51,-26.13 -59.25,-58.2 -8.16,-15.61 -14.73,-21.55 -17.5,-23.54 0.75,-0.38 1.53,-0.78 2.32,-1.2 3.44,2.74 9.72,9.19 17.26,23.66 16.45,31.5 35.17,45.64 58.22,57.18 0.58,0.29 0.82,1 0.53,1.58 z" />
								</g>
							</g>
							<path
   id="XMLID_210_"
   style="fill:#fdc79c"
   d="m 382.054,406.194 -4.21,12.89 c -14.39,-3.81 -27.43,-8.31 -39.16,-13.15 3.11,-4.61 5.68,-9.69 7.07,-15.83 18.89,10.02 36.3,16.09 36.3,16.09 z" />
						</g>
						<g
   id="XMLID_34_">
							<g
   id="XMLID_36_">
								<path
   id="XMLID_206_"
   style="fill:#fd6e55"
   d="m 219.374,434.164 c -0.06,2.13 -0.48,3.82 -1.55,4.38 -3.64,1.9 -43.46,4.01 -42.17,-3.52 0.19,-1.12 0.9,-2.18 1.96,-3.19 6.09,-5.77 23.91,-9.54 23.91,-9.54 4.65,1.05 8.59,1.75 16.06,-0.82 0,0 1.95,7.58 1.79,12.69 z" />
								<g
   id="g1">
									<path
   id="XMLID_45_"
   style="fill:#ffcfc3"
   d="m 219.374,434.164 c -0.06,2.13 -0.48,3.82 -1.55,4.38 -3.64,1.9 -43.46,4.01 -42.17,-3.52 0.19,-1.12 0.9,-2.18 1.96,-3.19 8.4,6 31.77,3.88 41.76,2.33 z" />
								</g>
							</g>
							<path
   id="XMLID_35_"
   style="fill:#e24e48"
   d="m 207.376,423.183 c 0,0 1.457,-4.39 0.29,-5.398 -1.167,-1.007 -8.634,-2.598 -8.963,-1.154 -0.328,1.445 1.547,6.007 1.547,6.007 1.09,0.604 4.763,1.314 7.126,0.545 z" />
						</g>
						<g
   id="XMLID_32_">
							<path
   id="XMLID_213_"
   style="fill:#fd6e55"
   d="m 396.424,411.184 c 0.23,2.22 -4.69,10.21 -7.86,21.09 -1.28,4.41 -13.76,12.32 -17.64,10.93 -1.1,-0.39 -1.84,-1.26 -2.33,-2.32 -1.05,-2.23 -0.98,-5.29 -0.72,-6.48 0.86,-3.98 5.96,-5.45 6.53,-7.14 1.05,-3.09 0.88,-6.96 0.88,-6.96 2.71,-3.94 4.82,-7.33 5.2,-15.22 0,0 7.56,0.98 12.27,2.97 2.04,0.85 3.55,1.9 3.67,3.13 z" />
							<g
   id="g2">
								<path
   id="XMLID_205_"
   style="fill:#ffcfc3"
   d="m 396.424,411.184 c 0.23,2.22 -4.69,10.21 -7.86,21.09 -1.28,4.41 -13.76,12.32 -17.64,10.93 -1.1,-0.39 -1.84,-1.26 -2.33,-2.32 5.49,-1.55 13.63,-3.93 16.69,-11.53 3.07,-7.62 6.64,-16 7.47,-21.3 2.04,0.85 3.55,1.9 3.67,3.13 z" />
							</g>
							<path
   id="XMLID_31_"
   style="fill:#e24e48"
   d="m 377.714,416.4 c 0,0 -3.702,-2.566 -4.937,-2.19 -1.235,0.377 -4.632,4.589 -3.375,5.336 1.257,0.748 5.975,1.234 5.975,1.234 0.841,-0.476 2.445,-2.575 2.337,-4.38 z" />
						</g>
					</g>
					<path
   id="XMLID_30_"
   style="fill:#ffd7ac"
   d="m 258.941,255.321 c 2.725,-24.996 6.686,-96.294 6.686,-96.294 l 8.935,-0.886 c 0,0 1.715,39.329 0.321,47.214 -1.517,8.582 -0.258,10.596 -0.066,18.424 0.165,6.721 2.866,32.471 -1.797,44.808 0,0 -16.053,4.845 -14.079,-13.266 z" />
				</g>
			</g>
		</g>
</svg>
